<svg xmlns="http://www.w3.org/2000/svg" viewBox="0 0 90.98 91"><defs><style>.cls-1{isolation:isolate;}.cls-2{fill-rule:evenodd;}</style></defs><title>basket</title><g id="basket" class="cls-1"><g id="basket-2" data-name="basket"><path class="cls-2" d="M93.14,35.2A4.92,4.92,0,0,0,91.78,35L91.5,35h-19V27a22.5,22.5,0,0,0-45,0v8H8.5a3.48,3.48,0,0,0-2.67,5.74L19.32,91.06A3.49,3.49,0,0,0,22.5,96h54a3.48,3.48,0,0,0,.8-0.1c1.71,0.29,3.27-.34,3.59-1.53l15-55.9C96.27,37.16,95,35.7,93.14,35.2ZM35,27a15,15,0,0,1,30,0v8H35V27ZM75,89H26L13.42,42H28v6.5a3.5,3.5,0,0,0,7,0V42H65v6.5a3.5,3.5,0,0,0,7,0V42H87.65Z" transform="translate(-5 -5)"/></g></g></svg>