<svg xmlns="http://www.w3.org/2000/svg" viewBox="0 0 89.99 57.02"><defs><style>.cls-1{isolation:isolate;}.cls-2{fill:#5dc4ff;fill-rule:evenodd;}</style></defs><title>BG_pleer_back</title><g id="BG_pleer_back" class="cls-1"><g id="BG_pleer_back-2" data-name="BG_pleer_back"><path class="cls-2" d="M93.56,22.19a2.77,2.77,0,0,0-2.83,0L52.39,45.4V23.85A2.86,2.86,0,0,0,51,21.37a2.77,2.77,0,0,0-2.83,0L6.37,46.66a2.87,2.87,0,0,0,0,4.9L48.13,76.81a2.77,2.77,0,0,0,2.83,0,2.86,2.86,0,0,0,1.42-2.48V54.43L90.73,77.62a2.77,2.77,0,0,0,2.83,0A2.86,2.86,0,0,0,95,75.17V24.67A2.86,2.86,0,0,0,93.56,22.19ZM46.76,69.34L13.3,49.11,46.76,28.87V69.34Zm42.6,0.81L55.9,49.92,89.36,29.69V70.15Z" transform="translate(-4.99 -21)"/></g></g></svg>