<svg xmlns="http://www.w3.org/2000/svg" viewBox="0 0 90 69.99"><defs><style>.cls-1{isolation:isolate;}.cls-2{fill:#5dc4ff;fill-rule:evenodd;}</style></defs><title>PROFILE</title><g id="PROFILE" class="cls-1"><g id="PROFILE-2" data-name="PROFILE"><path class="cls-2" d="M65.63,63.92A21.77,21.77,0,0,0,72.5,48.07V37a22.5,22.5,0,0,0-45,0v11a21.77,21.77,0,0,0,6.87,15.85C17.22,66.54,5,73.32,5,81.23V85q3.65-1.26,7.5-2.32V81.23c0-.86,2.16-3.62,8.58-6.26,7.5-3.08,18-4.85,28.92-4.85S71.41,71.89,78.91,75c6.42,2.65,8.59,5.42,8.59,6.28v0.37c2.57,0.63,5.06,1.33,7.5,2.09V81.26C95,73.35,82.78,66.55,65.63,63.92ZM65,48.07a15,15,0,0,1-30,0V37a15,15,0,0,1,30,0v11Z" transform="translate(-5 -15)"/></g></g></svg>