<svg xmlns="http://www.w3.org/2000/svg" viewBox="0 0 90 90"><defs><style>.cls-1{isolation:isolate;}.cls-2{fill:#5dc4ff;fill-rule:evenodd;}</style></defs><title>share</title><g id="share" class="cls-1"><g id="share-2" data-name="share"><path class="cls-2" d="M77,59a18,18,0,0,0-13.56,6.19L40.6,53.77a17.85,17.85,0,0,0,0-7.54L63.44,34.81a18,18,0,1,0-4-8L36.56,38.19a18,18,0,1,0,0,23.62L59.4,73.23A18,18,0,1,0,77,59Zm0-45a9,9,0,1,1-9,9A9,9,0,0,1,77,14ZM23,59a9,9,0,1,1,9-9A9,9,0,0,1,23,59ZM77,86a9,9,0,1,1,9-9A9,9,0,0,1,77,86Z" transform="translate(-5 -5)"/></g></g></svg>