<svg xmlns="http://www.w3.org/2000/svg" viewBox="0 0 88.98 91.07"><defs><style>.cls-1{isolation:isolate;}.cls-2{fill:#5dc4ff;fill-rule:evenodd;}</style></defs><title>pinterest</title><g id="pinterest" class="cls-1"><g id="pinterest-2" data-name="pinterest"><path class="cls-2" d="M49.51,3.92C24.94,3.92,5,24.31,5,49.46A45.6,45.6,0,0,0,31.89,91.29a41.42,41.42,0,0,1,.78-10.39c0.86-3.7,5.75-24.9,5.75-24.9A17.9,17.9,0,0,1,37,48.76c0-6.77,3.84-11.83,8.61-11.83,4.06,0,6,3.13,6,6.87C51.63,48,49,54.23,47.69,60a7,7,0,0,0,7.05,8.8c8.45,0,14.15-11.12,14.15-24.3,0-10-6.58-17.51-18.57-17.51-13.54,0-22,10.34-22,21.89a13.36,13.36,0,0,0,3,9,2.25,2.25,0,0,1,.64,2.55c-0.22.84-.7,2.86-0.9,3.67a1.53,1.53,0,0,1-2.24,1.13c-6.23-2.6-9.15-9.59-9.15-17.45,0-13,10.7-28.55,31.91-28.55,17.05,0,28.27,12.63,28.27,26.17,0,17.94-9.74,31.32-24.09,31.32-4.82,0-9.36-2.67-10.91-5.69,0,0-2.6,10.52-3.14,12.56a38.76,38.76,0,0,1-4.42,9.67A43.56,43.56,0,0,0,49.51,95C74.08,95,94,74.61,94,49.46S74.08,3.92,49.51,3.92Z" transform="translate(-5.02 -3.92)"/></g></g></svg>