<svg xmlns="http://www.w3.org/2000/svg" viewBox="0 0 91.98 89.95"><defs><style>.cls-1{isolation:isolate;}.cls-2{fill:#5dc4ff;fill-rule:evenodd;}</style></defs><title>facebook</title><g id="facebook" class="cls-1"><g id="facebook-2" data-name="facebook"><path class="cls-2" d="M86,5H13.94A9.84,9.84,0,0,0,4,14.72v70.5a9.84,9.84,0,0,0,9.94,9.72H48.52V58.21H40.29V44.9h8.24V36.23c0-11.35,4.82-18.1,18.5-18.1H78.58V31.28H70.43c-5.33,0-5.68,1.95-5.68,5.58l0,8h13.8L78.39,58.21H65V94.95H86A9.84,9.84,0,0,0,96,85.22V14.72A9.84,9.84,0,0,0,86,5Z" transform="translate(-4 -5)"/></g></g></svg>