<svg xmlns="http://www.w3.org/2000/svg" viewBox="0 0 89.99 63.08"><defs><style>.cls-1{isolation:isolate;}.cls-2{fill:#5dc4ff;}</style></defs><title>G+</title><g id="G_" data-name="G+" class="cls-1"><g id="G_2" data-name="G+"><path class="cls-2" d="M66.35,43.72V43.61H36.61V55.93H54.07c-2.17,9.2-9.19,12.69-17.7,12.69-10.26,0-18.53-8.39-18.51-19.09A19,19,0,0,1,36.61,30.32,19.81,19.81,0,0,1,49,35.15l8.86-8.94c-5.48-5-11.35-8-21.24-8.22C19.49,17.67,5,32.33,5,49.71s14.22,31,31.19,31.35c19,0.36,30.93-13,30.89-30.93a36.93,36.93,0,0,0-.61-6.4H66.35Zm21.22-.1V36.24h-8v7.38H72v8h7.52v7.48h8V51.59H95v-8H87.57Z" transform="translate(-5 -17.99)"/></g></g></svg>