<svg xmlns="http://www.w3.org/2000/svg" viewBox="0 0 89.99 87.95"><defs><style>.cls-1{isolation:isolate;}.cls-2{fill:#5dc4ff;fill-rule:evenodd;}</style></defs><title>tumbler</title><g id="tumbler" class="cls-1"><g id="tumbler-2" data-name="tumbler"><path class="cls-2" d="M83.52,6.07h-67A11.37,11.37,0,0,0,5,17.31V82.78A11.37,11.37,0,0,0,16.53,94h67A11.37,11.37,0,0,0,95,82.78V17.31A11.37,11.37,0,0,0,83.52,6.07ZM69.29,76.76a22.29,22.29,0,0,1-12.22,3.35H56.66a13.6,13.6,0,0,1-2.32.15c-8.8-.37-15.67-5-15.67-13.42,0,0,0,0,0-.07h0V44.43H30.33V35.58h0.1A19,19,0,0,0,43.37,19.11l0.19-.06v0.23h8.91V32.91H66.85V44.43H52.47v9.09l0.14,11.57v0.14c0.27,3,3.44,5,6.9,5.06A32.37,32.37,0,0,0,63.25,70a16.78,16.78,0,0,0,4.46-1.69,11.24,11.24,0,0,0,1.58-1.12v9.57Z" transform="translate(-5.03 -6.07)"/></g></g></svg>




