<svg xmlns="http://www.w3.org/2000/svg" viewBox="0 0 90.93 73.02"><defs><style>.cls-1{isolation:isolate;}.cls-2{fill:#5dc4ff;fill-rule:evenodd;}</style></defs><title>twitter</title><g id="twitter" class="cls-1"><g id="twitter-2" data-name="twitter"><path class="cls-2" d="M95,22.72a33.19,33.19,0,0,1-10.4,2.92c2.75-1.47,6.81-6.26,7.81-10.07-2.64,1.67-8.71,4.1-11.7,4.1h0A18.8,18.8,0,0,0,48.38,32.48a18.38,18.38,0,0,0,.47,4.14h0c-14.05-.37-29.42-7.33-38.67-19.24-5.69,9.73-.77,20.56,5.69,24.5-2.21.16-6.28-.25-8.19-2.1-0.13,6.46,3,15,14.47,18.12-2.21,1.17-6.11.84-7.81,0.59,0.6,5.45,8.32,12.58,16.77,12.58-3,3.44-14.34,9.68-27.05,7.7A56.85,56.85,0,0,0,33.4,87c30.26,0,53.77-24.24,52.5-54.14,0,0,0-.07,0-0.1s0-.15,0-0.23,0-.18,0-0.27A32.16,32.16,0,0,0,95,22.72Z" transform="translate(-4.06 -13.94)"/></g></g></svg>