<svg xmlns="http://www.w3.org/2000/svg" viewBox="0 0 90.98 91"><defs><style>.cls-1{isolation:isolate}.cls-2{fill:#5dc4ff;fill-rule:evenodd}</style></defs><title>basket</title><g id="basket" class="cls-1"><path class="cls-2" d="M93.14 35.2a4.92 4.92 0 0 0-1.36-.2H72.5v-8a22.5 22.5 0 0 0-45 0v8h-19a3.48 3.48 0 0 0-2.67 5.74l13.49 50.32A3.49 3.49 0 0 0 22.5 96h54a3.48 3.48 0 0 0 .8-.1c1.71.29 3.27-.34 3.59-1.53l15-55.9c.38-1.31-.89-2.77-2.75-3.27zM35 27a15 15 0 0 1 30 0v8H35v-8zm40 62H26L13.42 42H28v6.5a3.5 3.5 0 0 0 7 0V42h30v6.5a3.5 3.5 0 0 0 7 0V42h15.65z" transform="translate(-5 -5)" id="basket-2" data-name="basket"/></g></svg>