<svg xmlns="http://www.w3.org/2000/svg" viewBox="0 0 89.99 57.02"><defs><style>.cls-1{isolation:isolate}.cls-2{fill:#5dc4ff;fill-rule:evenodd}</style></defs><title>BG_pleer_back</title><g id="BG_pleer_back" class="cls-1"><path class="cls-2" d="M93.56 22.19a2.77 2.77 0 0 0-2.83 0L52.39 45.4V23.85A2.86 2.86 0 0 0 51 21.37a2.77 2.77 0 0 0-2.83 0L6.37 46.66a2.87 2.87 0 0 0 0 4.9l41.76 25.25a2.77 2.77 0 0 0 2.83 0 2.86 2.86 0 0 0 1.42-2.48v-19.9l38.35 23.19a2.77 2.77 0 0 0 2.83 0A2.86 2.86 0 0 0 95 75.17v-50.5a2.86 2.86 0 0 0-1.44-2.48zm-46.8 47.15L13.3 49.11l33.46-20.24v40.47zm42.6.81L55.9 49.92l33.46-20.23v40.46z" transform="translate(-4.99 -21)" id="BG_pleer_back-2" data-name="BG_pleer_back"/></g></svg>