<svg xmlns="http://www.w3.org/2000/svg" viewBox="0 0 90.02 57.02"><defs><style>.cls-1{isolation:isolate}.cls-2{fill:#5dc4ff;fill-rule:evenodd}</style></defs><title>BG_pleer_next</title><g id="BG_pleer_next" class="cls-1"><path class="cls-2" d="M93.63 47.45L51.85 22.19a2.77 2.77 0 0 0-2.83 0 2.86 2.86 0 0 0-1.42 2.48v19.9L9.24 21.38a2.77 2.77 0 0 0-2.83 0A2.86 2.86 0 0 0 5 23.83v50.5a2.86 2.86 0 0 0 1.42 2.48 2.77 2.77 0 0 0 2.83 0L47.6 53.6v21.55a2.86 2.86 0 0 0 1.4 2.48 2.77 2.77 0 0 0 2.83 0l41.8-25.29a2.87 2.87 0 0 0 0-4.89zm-83 21.87V28.85l33.45 20.23zm42.62.81V29.66L86.7 49.89z" transform="translate(-4.98 -20.98)" id="BG_pleer_next-2" data-name="BG_pleer_next"/></g></svg>