<svg xmlns="http://www.w3.org/2000/svg" viewBox="0 0 90 69.99"><defs><style>.cls-1{isolation:isolate}.cls-2{fill:#5dc4ff;fill-rule:evenodd}</style></defs><title>PROFILE</title><g id="PROFILE" class="cls-1"><path class="cls-2" d="M65.63 63.92a21.77 21.77 0 0 0 6.87-15.85V37a22.5 22.5 0 0 0-45 0v11a21.77 21.77 0 0 0 6.87 15.85C17.22 66.54 5 73.32 5 81.23V85q3.65-1.26 7.5-2.32v-1.45c0-.86 2.16-3.62 8.58-6.26 7.5-3.08 18-4.85 28.92-4.85S71.41 71.89 78.91 75c6.42 2.65 8.59 5.42 8.59 6.28v.37c2.57.63 5.06 1.33 7.5 2.09v-2.48c0-7.91-12.22-14.71-29.37-17.34zM65 48.07a15 15 0 0 1-30 0V37a15 15 0 0 1 30 0v11z" transform="translate(-5 -15)" id="PROFILE-2" data-name="PROFILE"/></g></svg>